<svg width="61" height="51" viewBox="0 0 61 51" fill="none" xmlns="http://www.w3.org/2000/svg">
<mask id="mask0_251_226" style="mask-type:alpha" maskUnits="userSpaceOnUse" x="0" y="0" width="51" height="51">
<circle cx="25.5" cy="25.5" r="23.5" stroke="white" stroke-width="4" stroke-linejoin="bevel"/>
</mask>
<g mask="url(#mask0_251_226)">
<path d="M26.9998 9.30039H47.0998L42.8998 -2.09961L12.8998 -1.19961L-1.2002 12.6004L-0.000195384 42.0004L22.4998 57.3004L50.0998 43.2004H26.6998L26.9998 9.30039Z" fill="white"/>
</g>
<path d="M20.7942 22.5996L19.4592 16.3146H19.3992L18.0642 22.5996H14.4192L12.0042 12.2796H15.4542L16.6392 18.1296H16.6992L17.8692 12.2796H21.1392L22.3842 18.1296H22.4442L23.5542 12.2796H26.8542L24.4392 22.5996H20.7942ZM28.0392 12.2796H36.9642V14.7546H31.3542V16.1796H36.1542V18.5496H31.3542V20.1246H37.0692V22.5996H28.0392V12.2796ZM45.7344 12.2796C46.2544 12.2796 46.7294 12.3896 47.1594 12.6096C47.5994 12.8196 47.9444 13.1196 48.1944 13.5096C48.4544 13.8996 48.5844 14.3346 48.5844 14.8146C48.5844 16.0846 48.0094 16.8846 46.8594 17.2146V17.2746C48.1694 17.5746 48.8244 18.4346 48.8244 19.8546C48.8244 20.3946 48.6894 20.8746 48.4194 21.2946C48.1594 21.7046 47.7994 22.0246 47.3394 22.2546C46.8794 22.4846 46.3744 22.5996 45.8244 22.5996H38.8644V12.2796H45.7344ZM42.1794 16.2996H44.4594C44.6794 16.2996 44.8594 16.2246 44.9994 16.0746C45.1494 15.9146 45.2244 15.7196 45.2244 15.4896V15.3396C45.2244 15.1196 45.1494 14.9346 44.9994 14.7846C44.8494 14.6246 44.6694 14.5446 44.4594 14.5446H42.1794V16.2996ZM42.1794 20.1996H44.6994C44.9194 20.1996 45.0994 20.1246 45.2394 19.9746C45.3894 19.8146 45.4644 19.6196 45.4644 19.3896V19.2396C45.4644 19.0096 45.3894 18.8196 45.2394 18.6696C45.0994 18.5096 44.9194 18.4296 44.6994 18.4296H42.1794V20.1996Z" fill="white"/>
<path d="M19.0723 37.1861H23.9773V39.6611H13.9723V38.5961L18.7573 31.8161H14.3323V29.3411H23.8573V30.4061L19.0723 37.1861ZM30.6775 29.1611C32.4575 29.1611 33.8325 29.6161 34.8025 30.5261C35.7725 31.4361 36.2575 32.7611 36.2575 34.5011C36.2575 36.2411 35.7725 37.5661 34.8025 38.4761C33.8325 39.3861 32.4575 39.8411 30.6775 39.8411C28.8975 39.8411 27.5225 39.3911 26.5525 38.4911C25.5925 37.5811 25.1125 36.2511 25.1125 34.5011C25.1125 32.7511 25.5925 31.4261 26.5525 30.5261C27.5225 29.6161 28.8975 29.1611 30.6775 29.1611ZM30.6775 31.6361C29.9675 31.6361 29.4275 31.8511 29.0575 32.2811C28.6875 32.7111 28.5025 33.2911 28.5025 34.0211V34.9811C28.5025 35.7111 28.6875 36.2911 29.0575 36.7211C29.4275 37.1511 29.9675 37.3661 30.6775 37.3661C31.3875 37.3661 31.9275 37.1511 32.2975 36.7211C32.6775 36.2911 32.8675 35.7111 32.8675 34.9811V34.0211C32.8675 33.2911 32.6775 32.7111 32.2975 32.2811C31.9275 31.8511 31.3875 31.6361 30.6775 31.6361ZM45.4226 39.6611L41.0876 34.6511V39.6611H38.0426V29.3411H40.9376L45.2726 34.4261V29.3411H48.3176V39.6611H45.4226ZM50.5377 29.3411H59.4627V31.8161H53.8527V33.2411H58.6527V35.6111H53.8527V37.1861H59.5677V39.6611H50.5377V29.3411Z" fill="white"/>
</svg>
