<svg width="494" height="883" viewBox="0 0 494 883" fill="none" xmlns="http://www.w3.org/2000/svg">
<path d="M336 205L333.5 205L336 205ZM489.5 482.5L487.024 482.155L489.5 482.5ZM304 693L306.275 694.036L304 693ZM9.16795 880.902C9.6663 882.19 11.1141 882.83 12.4018 882.331L33.3851 874.21C34.6727 873.712 35.3125 872.264 34.8142 870.977C34.3158 869.689 32.868 869.049 31.5804 869.547L12.9286 876.766L5.70985 858.114C5.21151 856.827 3.76368 856.187 2.47605 856.685C1.1884 857.184 0.548559 858.631 1.04691 859.919L9.16795 880.902ZM11.4994 880L13.7861 881.01C16.5009 874.867 19.3615 869.401 22.3546 864.533L20.2251 863.224L18.0956 861.914C14.9721 866.993 12.0088 872.663 9.21278 878.989L11.4994 880ZM45.5802 836.075L46.9576 838.162C57.3139 831.325 68.6926 827.798 80.9689 825.965L80.5997 823.493L80.2306 821.02C67.4686 822.925 55.3381 826.638 44.2029 833.989L45.5802 836.075ZM118.059 821.428L118.077 823.928C130.191 823.841 142.864 823.846 155.793 822.741L155.58 820.25L155.367 817.759C142.675 818.844 130.221 818.841 118.041 818.929L118.059 821.428ZM192.398 813.21L193.164 815.59C204.544 811.924 215.992 806.619 227.392 798.935L225.994 796.862L224.597 794.789C213.61 802.195 202.591 807.3 191.631 810.831L192.398 813.21ZM254.294 772.202L256.135 773.893C263.91 765.426 271.604 755.533 279.186 743.974L277.096 742.603L275.006 741.232C267.556 752.587 260.026 762.263 252.452 770.511L254.294 772.202ZM295.815 710.038L298.044 711.17C300.808 705.725 303.552 700.018 306.275 694.036L304 693L301.725 691.964C299.029 697.885 296.316 703.529 293.586 708.907L295.815 710.038ZM304 693L306.275 694.036C308.538 689.065 311.461 684.077 314.951 679.063L312.899 677.635L310.848 676.207C307.22 681.417 304.136 686.668 301.725 691.964L304 693ZM336.196 650.718L337.954 652.496C345.946 644.592 354.824 636.657 364.184 628.654L362.56 626.754L360.935 624.854C351.528 632.897 342.55 640.919 334.438 648.941L336.196 650.718ZM389.945 603.936L391.535 605.866C400.703 598.312 409.945 590.68 418.908 582.958L417.276 581.064L415.644 579.17C406.729 586.851 397.527 594.451 388.356 602.007L389.945 603.936ZM443.578 557.018L445.335 558.797C454.211 550.031 462.352 541.099 469.285 531.973L467.294 530.461L465.303 528.948C458.554 537.833 450.585 546.586 441.822 555.239L443.578 557.018ZM485.017 499.69L487.355 500.577C489.561 494.765 491.139 488.855 491.976 482.845L489.5 482.5L487.024 482.155C486.244 487.757 484.768 493.303 482.68 498.803L485.017 499.69ZM489.5 482.5L491.976 482.845C492.798 476.945 493.364 471.288 493.692 465.858L491.197 465.707L488.701 465.557C488.382 470.849 487.829 476.377 487.024 482.155L489.5 482.5ZM489.888 432.159L492.36 431.78C490.483 419.536 487.098 408.732 482.552 399.034L480.288 400.095L478.025 401.155C482.365 410.415 485.612 420.759 487.417 432.538L489.888 432.159ZM461.829 372.126L463.714 370.484C456.235 361.899 447.823 354.268 439.022 347.098L437.443 349.036L435.864 350.974C444.536 358.039 452.716 365.471 459.944 373.768L461.829 372.126ZM410.702 328.649L412.194 326.643C403.18 319.939 394.287 313.209 385.945 305.947L384.303 307.832L382.662 309.718C391.162 317.118 400.191 323.947 409.21 330.655L410.702 328.649ZM361.076 283.608L363.059 282.086C356.581 273.645 351.056 264.28 346.897 253.563L344.566 254.468L342.236 255.372C346.585 266.578 352.357 276.353 359.092 285.13L361.076 283.608ZM336.859 221.875L339.345 221.613C338.791 216.355 338.5 210.826 338.5 205L336 205L333.5 205C333.5 210.993 333.799 216.697 334.373 222.137L336.859 221.875ZM336 205L338.5 205C338.5 198.686 338.648 192.728 338.929 187.093L336.433 186.969L333.936 186.844C333.65 192.566 333.5 198.607 333.5 205L336 205ZM340.543 151.332L342.997 151.806C345.566 138.479 349.061 127.516 353.015 117.933L350.704 116.979L348.393 116.026C344.316 125.907 340.723 137.191 338.088 150.859L340.543 151.332ZM367.076 85.0553L369.245 86.2979C375.107 76.0641 380.875 65.9317 385.353 53.7901L383.007 52.9251L380.662 52.0601C376.348 63.7586 370.782 73.5553 364.906 83.8128L367.076 85.0553ZM390.707 17.9797L393.196 18.2111C393.72 12.5823 394 6.53829 394 -0.00207734L391.5 -0.00207595L389 -0.00207457C389 6.3952 388.726 12.2844 388.218 17.7483L390.707 17.9797Z" fill="url(#paint0_linear_228_9)"/>
<defs>
<linearGradient id="paint0_linear_228_9" x1="168.206" y1="25.8218" x2="263.62" y2="850.842" gradientUnits="userSpaceOnUse">
<stop stop-color="#6A9EBA"/>
<stop offset="1" stop-color="#659B15"/>
</linearGradient>
</defs>
</svg>
