<svg width="92" height="92" viewBox="0 0 92 92" fill="none" xmlns="http://www.w3.org/2000/svg">
<rect x="1.5" y="1.5" width="89" height="89" rx="44.5" stroke="#E2E2E2" stroke-width="3"/>
<rect x="20" y="18" width="34" height="34" rx="16.5" stroke="#E2E2E2" stroke-width="4"/>
<rect x="49.459" y="47.4922" width="30.9394" height="2.11023" rx="1.05511" transform="rotate(45 49.459 47.4922)" stroke="#E2E2E2" stroke-width="2.11023"/>
<path d="M34.7102 39.4588V39.0966C34.7173 37.8537 34.8274 36.8629 35.0405 36.1243C35.2607 35.3857 35.5803 34.7891 35.9993 34.3345C36.4183 33.88 36.9226 33.468 37.5121 33.0987C37.9524 32.8146 38.3466 32.5199 38.6946 32.2145C39.0426 31.9091 39.3196 31.5717 39.5256 31.2024C39.7315 30.826 39.8345 30.407 39.8345 29.9453C39.8345 29.4553 39.7173 29.0256 39.483 28.6562C39.2486 28.2869 38.9325 28.0028 38.5348 27.804C38.1442 27.6051 37.7109 27.5057 37.2351 27.5057C36.7734 27.5057 36.3366 27.6087 35.9247 27.8146C35.5128 28.0135 35.1754 28.3118 34.9126 28.7095C34.6499 29.1001 34.5078 29.5866 34.4865 30.169H30.1399C30.1754 28.7486 30.5163 27.5767 31.1626 26.6534C31.8089 25.723 32.6648 25.0305 33.7301 24.576C34.7955 24.1143 35.9709 23.8835 37.2564 23.8835C38.6697 23.8835 39.9197 24.1179 41.0064 24.5866C42.093 25.0483 42.9453 25.7195 43.5632 26.6001C44.1811 27.4808 44.4901 28.5426 44.4901 29.7855C44.4901 30.6165 44.3516 31.3551 44.0746 32.0014C43.8047 32.6406 43.4247 33.2088 42.9347 33.706C42.4446 34.196 41.8658 34.6399 41.1982 35.0376C40.6371 35.3714 40.1754 35.7195 39.8132 36.0817C39.4581 36.4439 39.1918 36.8629 39.0142 37.3388C38.8438 37.8146 38.755 38.4006 38.7479 39.0966V39.4588H34.7102ZM36.8196 46.277C36.1094 46.277 35.5021 46.0284 34.9979 45.5312C34.5007 45.027 34.2557 44.4233 34.2628 43.7202C34.2557 43.0241 34.5007 42.4276 34.9979 41.9304C35.5021 41.4332 36.1094 41.1847 36.8196 41.1847C37.4943 41.1847 38.0874 41.4332 38.5987 41.9304C39.1101 42.4276 39.3693 43.0241 39.3764 43.7202C39.3693 44.1889 39.245 44.6186 39.0036 45.0092C38.7692 45.3928 38.4602 45.7017 38.0767 45.9361C37.6932 46.1634 37.2741 46.277 36.8196 46.277Z" fill="#E2E2E2"/>
</svg>
