<svg width="84" height="84" viewBox="0 0 84 84" fill="none" xmlns="http://www.w3.org/2000/svg">
<rect x="1.5" y="1.5" width="81" height="81" rx="17.5" stroke="#373737" stroke-width="3"/>
<rect x="16" y="14" width="34" height="34" rx="16.5" stroke="#373737" stroke-width="4"/>
<rect x="45.4587" y="43.4922" width="30.9394" height="2.11023" rx="1.05511" transform="rotate(45 45.4587 43.4922)" stroke="#373737" stroke-width="2.11023"/>
<path d="M30.7102 35.4588V35.0966C30.7173 33.8537 30.8274 32.8629 31.0405 32.1243C31.2607 31.3857 31.5803 30.7891 31.9993 30.3345C32.4183 29.88 32.9226 29.468 33.5121 29.0987C33.9524 28.8146 34.3466 28.5199 34.6946 28.2145C35.0426 27.9091 35.3196 27.5717 35.5256 27.2024C35.7315 26.826 35.8345 26.407 35.8345 25.9453C35.8345 25.4553 35.7173 25.0256 35.483 24.6562C35.2486 24.2869 34.9325 24.0028 34.5348 23.804C34.1442 23.6051 33.7109 23.5057 33.2351 23.5057C32.7734 23.5057 32.3366 23.6087 31.9247 23.8146C31.5128 24.0135 31.1754 24.3118 30.9126 24.7095C30.6499 25.1001 30.5078 25.5866 30.4865 26.169H26.1399C26.1754 24.7486 26.5163 23.5767 27.1626 22.6534C27.8089 21.723 28.6648 21.0305 29.7301 20.576C30.7955 20.1143 31.9709 19.8835 33.2564 19.8835C34.6697 19.8835 35.9197 20.1179 37.0064 20.5866C38.093 21.0483 38.9453 21.7195 39.5632 22.6001C40.1811 23.4808 40.4901 24.5426 40.4901 25.7855C40.4901 26.6165 40.3516 27.3551 40.0746 28.0014C39.8047 28.6406 39.4247 29.2088 38.9347 29.706C38.4446 30.196 37.8658 30.6399 37.1982 31.0376C36.6371 31.3714 36.1754 31.7195 35.8132 32.0817C35.4581 32.4439 35.1918 32.8629 35.0142 33.3388C34.8438 33.8146 34.755 34.4006 34.7479 35.0966V35.4588H30.7102ZM32.8196 42.277C32.1094 42.277 31.5021 42.0284 30.9979 41.5312C30.5007 41.027 30.2557 40.4233 30.2628 39.7202C30.2557 39.0241 30.5007 38.4276 30.9979 37.9304C31.5021 37.4332 32.1094 37.1847 32.8196 37.1847C33.4943 37.1847 34.0874 37.4332 34.5987 37.9304C35.1101 38.4276 35.3693 39.0241 35.3764 39.7202C35.3693 40.1889 35.245 40.6186 35.0036 41.0092C34.7692 41.3928 34.4602 41.7017 34.0767 41.9361C33.6932 42.1634 33.2741 42.277 32.8196 42.277Z" fill="#617892"/>
</svg>
