<svg width="36" height="36" viewBox="0 0 36 36" fill="none" xmlns="http://www.w3.org/2000/svg">
<circle cx="18" cy="18" r="18" fill="#669C16"/>
<path d="M8.21687 18.5973C11.3534 19.63 12.8391 19.5757 13.1693 19.4126C13.6645 19.3231 18.4919 16.3142 20.1427 15.1727C21.4491 14.2694 20.9946 14.8678 20.7703 15.1632L20.763 15.1727C20.2678 15.825 17.5948 18.1394 16.9662 18.7603C16.3058 19.4126 14.9852 20.3911 15.8106 21.2064C16.5827 21.9692 18.5678 23.2708 20.9281 24.631C22.9091 25.7725 23.0791 23.9592 23.2393 23.3264C23.4043 22.6741 24.3948 15.662 24.8901 13.0528C25.3853 10.4436 24.0556 11.0431 23.8996 11.0959C22.9773 11.4082 15.6904 14.2913 15.6904 14.2913C15.6904 14.2913 11.6428 16.0905 8.54703 17.4557C7.88671 17.7469 7.8867 18.4885 8.21687 18.5973Z" fill="#669C16" stroke="white"/>
</svg>
